# xmcd CD database file
#
# Track frame offsets:
#	150
#	28334
#	42149
#	60778
#	80072
#	105627
#	125160
#	157109
#	193171
#	216353
#	243441
#	275421
#	300762
#
# Disc length: 4226 seconds
#
# Revision: 0
# Processed by: cddbd v1.4PL0 Copyright (c) Steve Scherf et al.
# Submitted via: CD2WAV32(EN) R3.19
#
DISCID=b510800d
DTITLE=Unknown - Best of Morroco
DYEAR=1900
DGENRE=
TTITLE0=Rachid Taha
TTITLE1=Oriental Didi
TTITLE2=Habibi Ya Noun Alabina
TTITLE3=Ider and Gnawa Difusion
TTITLE4=Mami
TTITLE5=Khaled
TTITLE6=Gnawa
TTITLE7=Warda - Harramte Ahebak
TTITLE8=Amro Diab - Habibi Ya Nour El Aine
TTITLE9=Khaled - Gnawa
TTITLE10=Barbes
TTITLE11=Boulina
TTITLE12=M'Aalem Brahim
EXTD=
EXTT0=
EXTT1=
EXTT2=
EXTT3=
EXTT4=
EXTT5=
EXTT6=
EXTT7=
EXTT8=
EXTT9=
EXTT10=
EXTT11=
EXTT12=
PLAYORDER=
